# xmcd
#
# Track frame offsets:
#	180
#	13768
#	26594
#	42638
#	61154
#	76677
#	90040
#	101601
#	113506
#	133150
#	151322
#	172901
#	186100
#	200212
#	212638
#
# Disc length: 3003 seconds
#
# Revision: 0
# Processed by: cddbd v1.5.1PL2 Copyright (c) Steve Scherf et al.
# Submitted via: audiograbber 1.83.01
#
DISCID=ba0bb90f
DTITLE=Sound Choice - SC8118
DYEAR=1900
DGENRE=Karaoke Standards
TTITLE0=Tony Bennett - I Left My Heart In San Francisco
TTITLE1=Eddy Arnold - Make The World Go Away
TTITLE2=Frank Sinatra - New York, New York
TTITLE3=Morris Albert - Feelings
TTITLE4=Engelbert Humperdinck - Release Me
TTITLE5=Nat King Cole - Ramblin' Rose
TTITLE6=Perry Como - Catch A Falling Star
TTITLE7=Andy Williams - Can't Get Used To Losing You
TTITLE8=Ray Charles - I Can't Stop Loving You
TTITLE9=Engelbert Humperdinck - After The Lovin'
TTITLE10=Frank Sinatra - My Way
TTITLE11=Andy Williams - Moon River
TTITLE12=Frank Sinatra - Summer Wind
TTITLE13=Dean Martin - Everybody Loves Somebody
TTITLE14=Paul Anka - Put Your Head On My Shoulder
EXTD=
EXTT0=
EXTT1=
EXTT2=
EXTT3=
EXTT4=
EXTT5=
EXTT6=
EXTT7=
EXTT8=
EXTT9=
EXTT10=
EXTT11=
EXTT12=
EXTT13=
EXTT14=
PLAYORDER=
